# xmcd CD database file
#
# Track frame offsets:
#	150
#	36483
#	75905
#	97359
#
# Disc length: 1674 seconds
#
# Revision: 0
# Processed by: cddbd v1.5.1PL0 Copyright (c) Steve Scherf et al.
# Submitted via: CDex 1.51
#
DISCID=2c068804
DTITLE=Nathan Haines - Sound Travels (Bonus)
DYEAR=1900
DGENRE=Jazz
TTITLE0=Surprising (Restless Soul Peaktime Mix)
TTITLE1=Earth Is the Place (Restless Soul Peaktime Mix)
TTITLE2=Soundtravels Bonus
TTITLE3=Wonderful Thing Instrumental
EXTD=
EXTT0=
EXTT1=
EXTT2=
EXTT3=
PLAYORDER=
